<?xml version="1.0" encoding="UTF-8" standalone="no"?>
<!-- Generator: Adobe Illustrator 15.1.0, SVG Export Plug-In . SVG Version: 6.00 Build 0)  -->

<svg
   xmlns:dc="http://purl.org/dc/elements/1.1/"
   xmlns:cc="http://creativecommons.org/ns#"
   xmlns:rdf="http://www.w3.org/1999/02/22-rdf-syntax-ns#"
   xmlns:svg="http://www.w3.org/2000/svg"
   xmlns="http://www.w3.org/2000/svg"
   xmlns:sodipodi="http://sodipodi.sourceforge.net/DTD/sodipodi-0.dtd"
   xmlns:inkscape="http://www.inkscape.org/namespaces/inkscape"
   version="1.1"
   id="Layer_1"
   x="0px"
   y="0px"
   width="500px"
   height="500px"
   viewBox="0 0 500 500"
   enable-background="new 0 0 500 500"
   xml:space="preserve"
   inkscape:version="0.48.2 r9819"
   sodipodi:docname="logo-large.svg"><metadata
   id="metadata3106"><rdf:RDF><cc:Work
       rdf:about=""><dc:format>image/svg+xml</dc:format><dc:type
         rdf:resource="http://purl.org/dc/dcmitype/StillImage" /><dc:title></dc:title></cc:Work></rdf:RDF></metadata><defs
   id="defs3104"><linearGradient
     id="svg_1"
     x1="191.91457"
     y1="18.809022"
     x2="562.47888"
     y2="389.37334"
     gradientTransform="scale(0.85223629,1.1733835)"
     gradientUnits="userSpaceOnUse"><stop
       id="stop3254"
       offset="0"
       stop-color="#ff0000" /><stop
       id="stop3256"
       offset="1"
       stop-color="#ffff00" /></linearGradient></defs><sodipodi:namedview
   pagecolor="#ffffff"
   bordercolor="#666666"
   borderopacity="1"
   objecttolerance="10"
   gridtolerance="10"
   guidetolerance="10"
   inkscape:pageopacity="0"
   inkscape:pageshadow="2"
   inkscape:window-width="1534"
   inkscape:window-height="904"
   id="namedview3102"
   showgrid="false"
   inkscape:zoom="1.24"
   inkscape:cx="234.67742"
   inkscape:cy="250"
   inkscape:window-x="0"
   inkscape:window-y="22"
   inkscape:window-maximized="0"
   inkscape:current-layer="layer1" />
<path
   d="m 393.04834,226.07243 c -93.71559,88.837 -200.71336,114.6254 -224.88431,91.58155 C 146.00707,296.52886 171.76272,193.28163 265.4783,104.44463 359.19245,15.607623 488.54118,-5.5175011 498.94925,4.4043515 507.67571,12.726098 486.76251,137.23408 393.04834,226.07243 z"
   id="path3088"
   inkscape:connector-curvature="0" />
<path
   d="m 160.2153,332.14821 c 38.50717,36.71239 53.46252,84.76763 40.75229,119.7687 9.81617,-3.19202 18.67807,-8.22955 26.06944,-15.23737 35.14957,-33.31963 57.46914,-129.63903 8.70646,-176.1295 -48.7627,-46.49047 -150.140651,-25.54705 -185.288818,7.77123 -7.392773,7.00782 -12.717354,15.41773 -16.10352,24.74024 36.854093,-11.98027 87.358348,2.37433 125.864148,39.0867 z"
   id="path3090"
   inkscape:connector-curvature="0" />

<flowRoot
   xml:space="preserve"
   id="flowRoot3108"
   style="fill:black;stroke:none;stroke-opacity:1;stroke-width:1px;stroke-linejoin:miter;stroke-linecap:butt;fill-opacity:1;font-family:Sans;font-style:normal;font-weight:normal;font-size:40px;line-height:125%;letter-spacing:0px;word-spacing:0px"><flowRegion
     id="flowRegion3110"><rect
       id="rect3112"
       width="171.7742"
       height="50"
       x="245.16129"
       y="177.41936" /></flowRegion><flowPara
     id="flowPara3114" /></flowRoot><text
   xml:space="preserve"
   style="font-size:55.62924576px;font-style:italic;font-variant:normal;font-weight:500;font-stretch:normal;line-height:125%;letter-spacing:0px;word-spacing:0px;fill:#ff0000;fill-opacity:1;stroke:none;font-family:Cooper Black;-inkscape-font-specification:'Cooper Black, Italic'"
   x="-33.012955"
   y="358.94354"
   id="text3116"
   sodipodi:linespacing="125%"
   transform="matrix(0.72521777,-0.68944808,0.72521777,0.68944808,0,0)"><tspan
     sodipodi:role="line"
     id="tspan3118"
     x="-33.012955"
     y="358.94354">Fasterness!</tspan></text>

<g
   inkscape:groupmode="layer"
   id="layer1"
   inkscape:label="flame"><g
     id="g3258"
     transform="matrix(-0.46772205,-0.44465275,0.35386477,-0.33641121,149.06819,635.24063)"><title
       id="title3260">Layer 1</title><g
       id="layer1-0"><path
         d="M 287.93777,22.070196 C 260.55991,204.20087 173.70967,205.86105 164.18697,300.00857 c -9.56546,94.56974 92.6309,152.9123 109.46476,156.87568 0,0 -48.00865,-52.27384 -43.49475,-96.9014 3.12581,-30.90308 16.63353,-42.08991 42.12991,-75.91034 18.3248,-24.30747 39.01871,-57.66255 54.23188,-106.92571 54.13946,44.63037 77.35602,70.59914 88.17242,124.48961 10.81653,53.89054 -33.84942,150.79209 -33.84942,150.79209 161.55416,-114.66065 120.16674,-289.69742 -92.904,-430.358304 z"
         id="path4355"
         stroke-miterlimit="4"
         inkscape:connector-curvature="0"
         style="fill:url(#svg_1);fill-rule:evenodd;stroke:#000000;stroke-width:0;stroke-linecap:square;stroke-miterlimit:4" /></g></g></g></svg>