<?xml version="1.0" encoding="UTF-8" standalone="no"?>
<!-- Generator: Adobe Illustrator 15.1.0, SVG Export Plug-In . SVG Version: 6.00 Build 0)  -->

<svg
   xmlns:dc="http://purl.org/dc/elements/1.1/"
   xmlns:cc="http://creativecommons.org/ns#"
   xmlns:rdf="http://www.w3.org/1999/02/22-rdf-syntax-ns#"
   xmlns:svg="http://www.w3.org/2000/svg"
   xmlns="http://www.w3.org/2000/svg"
   xmlns:sodipodi="http://sodipodi.sourceforge.net/DTD/sodipodi-0.dtd"
   xmlns:inkscape="http://www.inkscape.org/namespaces/inkscape"
   version="1.1"
   id="Layer_1"
   x="0px"
   y="0px"
   width="500px"
   height="500px"
   viewBox="0 0 500 500"
   enable-background="new 0 0 500 500"
   xml:space="preserve"
   inkscape:version="0.48.2 r9819"
   sodipodi:docname="rocket.svg"><metadata
   id="metadata3106"><rdf:RDF><cc:Work
       rdf:about=""><dc:format>image/svg+xml</dc:format><dc:type
         rdf:resource="http://purl.org/dc/dcmitype/StillImage" /><dc:title></dc:title></cc:Work></rdf:RDF></metadata><defs
   id="defs3104"><linearGradient
     id="svg_1"
     x1="191.91457"
     y1="18.809022"
     x2="562.47888"
     y2="389.37334"
     gradientTransform="scale(0.85223629,1.1733835)"
     gradientUnits="userSpaceOnUse"><stop
       id="stop3254"
       offset="0"
       stop-color="#ff0000" /><stop
       id="stop3256"
       offset="1"
       stop-color="#ffff00" /></linearGradient></defs><sodipodi:namedview
   pagecolor="#ffffff"
   bordercolor="#666666"
   borderopacity="1"
   objecttolerance="10"
   gridtolerance="10"
   guidetolerance="10"
   inkscape:pageopacity="0"
   inkscape:pageshadow="2"
   inkscape:window-width="1534"
   inkscape:window-height="904"
   id="namedview3102"
   showgrid="false"
   inkscape:zoom="1.24"
   inkscape:cx="113.30645"
   inkscape:cy="250"
   inkscape:window-x="0"
   inkscape:window-y="22"
   inkscape:window-maximized="0"
   inkscape:current-layer="layer1" />
<path
   d="m 329.73296,270.77268 c -92.78443,-0.13364 -159.27579,-39.7295 -159.24185,-63.7287 0.0318,-22.00021 66.63986,-63.0718 159.42429,-62.93816 92.78372,0.13293 167.92372,53.2409 167.90957,63.57455 -0.0134,8.6656 -75.30757,63.22454 -168.09201,63.09231 z"
   id="path3088"
   inkscape:connector-curvature="0" />
<path
   d="m 158.99233,210.66167 c -0.0545,38.23397 -17.69959,70.70714 -42.25246,82.65795 6.53084,3.20178 13.55099,4.96813 20.86955,4.97803 34.80026,0.0502 96.09227,-39.11219 96.16157,-87.52921 0.0693,-48.41701 -61.10958,-87.75336 -95.90843,-87.80357 -7.31926,-0.0106 -14.34437,1.73524 -20.8844,4.91793 24.51752,12.02294 42.06932,44.5456 42.01417,82.77887 z"
   id="path3090"
   inkscape:connector-curvature="0" />

<flowRoot
   xml:space="preserve"
   id="flowRoot3108"
   style="fill:black;stroke:none;stroke-opacity:1;stroke-width:1px;stroke-linejoin:miter;stroke-linecap:butt;fill-opacity:1;font-family:Sans;font-style:normal;font-weight:normal;font-size:40px;line-height:125%;letter-spacing:0px;word-spacing:0px"><flowRegion
     id="flowRegion3110"><rect
       id="rect3112"
       width="171.7742"
       height="50"
       x="245.16129"
       y="177.41936" /></flowRegion><flowPara
     id="flowPara3114"></flowPara></flowRoot><text
   xml:space="preserve"
   style="font-size:40px;font-style:italic;font-variant:normal;font-weight:500;font-stretch:normal;line-height:125%;letter-spacing:0px;word-spacing:0px;fill:#ff0000;fill-opacity:1;stroke:none;font-family:Cooper Black;-inkscape-font-specification:'Cooper Black, Italic'"
   x="229.03224"
   y="216.12903"
   id="text3116"
   sodipodi:linespacing="125%"><tspan
     sodipodi:role="line"
     id="tspan3118"
     x="229.03224"
     y="216.12903">Fasterness!</tspan></text>
<g
   inkscape:groupmode="layer"
   id="layer1"
   inkscape:label="flame"><g
     id="g3258"
     transform="matrix(0,-0.46374175,0.3508534,0,-4.5859148,363.18766)"><title
       id="title3260">Layer 1</title><g
       id="layer1-0"><path
         d="M 287.93777,22.070196 C 260.55991,204.20087 173.70967,205.86105 164.18697,300.00857 c -9.56546,94.56974 92.6309,152.9123 109.46476,156.87568 0,0 -48.00865,-52.27384 -43.49475,-96.9014 3.12581,-30.90308 16.63353,-42.08991 42.12991,-75.91034 18.3248,-24.30747 39.01871,-57.66255 54.23188,-106.92571 54.13946,44.63037 77.35602,70.59914 88.17242,124.48961 10.81653,53.89054 -33.84942,150.79209 -33.84942,150.79209 161.55416,-114.66065 120.16674,-289.69742 -92.904,-430.358304 z"
         id="path4355"
         stroke-miterlimit="4"
         inkscape:connector-curvature="0"
         style="fill:url(#svg_1);fill-rule:evenodd;stroke:#000000;stroke-width:0;stroke-linecap:square;stroke-miterlimit:4" /></g></g></g></svg>