<?xml version="1.0" encoding="utf-8"?>
<!-- Generator: Adobe Illustrator 15.1.0, SVG Export Plug-In . SVG Version: 6.00 Build 0)  -->
<!DOCTYPE svg PUBLIC "-//W3C//DTD SVG 1.1//EN" "http://www.w3.org/Graphics/SVG/1.1/DTD/svg11.dtd">
<svg version="1.1" id="Layer_1" xmlns="http://www.w3.org/2000/svg" xmlns:xlink="http://www.w3.org/1999/xlink" x="0px" y="0px"
	 width="500px" height="500px" viewBox="0 0 500 500" enable-background="new 0 0 500 500" xml:space="preserve">
<path d="M400.054,198.786c-65.703,65.514-140.718,84.532-157.664,67.538c-15.534-15.579,2.523-91.72,68.226-157.234
	c65.702-65.514,156.387-81.093,163.684-73.776C480.418,41.451,465.756,133.271,400.054,198.786z"/>
<path d="M233.396,275.526c26.997,27.074,37.482,62.513,28.571,88.325c6.882-2.354,13.095-6.069,18.277-11.237
	c24.643-24.572,40.291-95.604,6.104-129.889c-34.187-34.285-105.262-18.84-129.904,5.731c-5.183,5.168-8.916,11.37-11.29,18.245
	C170.992,237.866,206.4,248.452,233.396,275.526z"/>
<g>
	<g>
		<path d="M194.405,260.168c-56.682-16.523-82.344,142.992-82.344,142.992s-15.594,69.109-79.466,62.783
			c35.649,0.01,49.075-75.791,49.075-75.791S100.547,223.383,194.405,260.168z"/>
		<path d="M227.72,283.082c-18.457-17.9-34.179-28.709-63.673,29.61c0,0-14.991,30.348-20.244,70.103c0,0-8.384,73.48-51.6,84.582
			c69.287-4.2,81.101-62.306,81.101-62.306S186.25,293.731,227.72,283.082z"/>
		<path d="M180.174,437.936c0,0,20.725-15.919,24.197-56.466c0,0,6.354-61.46,36.197-81.139
			C240.567,300.331,292.766,370.583,180.174,437.936z"/>
	</g>
</g>
</svg>
